<?xml version="1.0" encoding="UTF-8" standalone="no"?>
<!-- Created with Inkscape (http://www.inkscape.org/) -->

<svg
   width="1128"
   height="191"
   viewBox="0 0 298.45 50.535416"
   version="1.1"
   id="svg1"
   xmlns:xlink="http://www.w3.org/1999/xlink"
   xmlns="http://www.w3.org/2000/svg"
   xmlns:svg="http://www.w3.org/2000/svg">
  <defs
     id="defs1">
    <radialGradient
       xlink:href="#linearGradient1162"
       id="radialGradient1163"
       cx="254.63908"
       cy="170.97723"
       fx="254.63908"
       fy="170.97723"
       r="525.29541"
       gradientTransform="matrix(5.9751139e-5,0.03963202,-0.28131156,-0.00223162,197.37367,18.425361)"
       gradientUnits="userSpaceOnUse" />
    <linearGradient
       id="linearGradient1162">
      <stop
         style="stop-color:#000000;stop-opacity:0.33079848;"
         offset="0"
         id="stop1162" />
      <stop
         style="stop-color:#000000;stop-opacity:0;"
         offset="1"
         id="stop1163" />
    </linearGradient>
  </defs>
  <g
     id="layer2">
    <path
       id="path1017"
       style="fill:none;stroke:url(#radialGradient1163);stroke-width:0.499693;stroke-opacity:1"
       d="m 298.22595,25.26773 c 0,4.569224 -4.16752,8.922173 -11.70405,12.881395 -7.53652,3.959226 -18.44202,7.524742 -31.91797,10.519091 -13.47597,2.99434 -29.52239,5.417535 -47.34072,7.092135 -17.81832,1.674603 -37.40857,2.600618 -57.97219,2.600618 -20.56362,0 -40.15386,-0.926015 -57.972192,-2.600618 -17.818323,-1.6746 -33.864739,-4.097795 -47.3407,-7.092135 C 30.502166,45.673867 19.596661,42.108351 12.060145,38.149125 4.5236253,34.189903 0.35609844,29.836954 0.35609844,25.26773 c 0,-4.569227 4.16752976,-8.922174 11.70404656,-12.881397 7.536516,-3.9592258 18.442024,-7.524731 31.917987,-10.5190837 13.475957,-2.9943536 29.522373,-5.4175539 47.3407,-7.0921658 17.818328,-1.674612 37.408568,-2.6006354 57.972188,-2.6006354 20.56362,0 40.15387,0.9260234 57.97219,2.6006354 17.81833,1.6746119 33.86475,4.0978122 47.34071,7.0921658 13.47596,2.9943527 24.38146,6.5598579 31.91798,10.5190837 7.53652,3.959223 11.70405,8.31217 11.70405,12.881397 z m -47.36024,-2.433268 47.36019,2.433298 m -55.34245,6.332539 43.63833,6.548772 m -65.40667,0.609589 33.48893,9.909629 m -65.77567,-5.083258 18.43479,12.17522 M 149.2911,45.354679 V 58.360976 M 109.75355,43.585031 91.318836,55.760251 m -13.852,-17.001591 -33.48867,9.909629 M 55.698534,31.600299 12.060136,38.149071 M 47.716198,22.834462 0.35601607,25.26776 M 55.698534,14.068654 12.060136,12.386335 M 77.466836,6.9103629 43.978166,1.8672552 M 109.75355,2.084104 91.318836,-5.2249156 M 149.2911,0.31436867 V -7.8255488 m 39.53727,9.9096528 18.43479,-7.3090196 m 13.85195,12.1352785 33.48893,-5.0431077 m -11.72059,12.2013988 43.63833,-1.682319 m -35.65607,10.448127 47.36019,2.433298 m -47.36013,-2.433247 c 0,3.109384 -2.84229,6.07159 -7.98223,8.765861 -5.13998,2.694274 -12.57762,5.120626 -21.76832,7.1583 -9.1907,2.037674 -20.13449,3.686675 -32.28672,4.82626 -12.15224,1.139582 -25.51292,1.769745 -39.53748,1.769745 -14.02456,0 -27.38524,-0.630163 -39.53747,-1.769745 C 97.601318,42.445349 86.657542,40.796348 77.466836,38.758674 68.276126,36.721 60.83849,34.294648 55.698529,31.600374 c -5.139965,-2.694271 -7.98225,-5.656477 -7.98225,-8.765861 0,-3.109384 2.842285,-6.071586 7.98225,-8.765861 C 60.83849,11.37438 68.276126,8.9480325 77.466836,6.9103589 86.657542,4.8726853 97.601318,3.2236855 109.75356,2.084104 c 12.15222,-1.13958156 25.5129,-1.76974554 39.53746,-1.76974554 14.02456,0 27.38524,0.63016398 39.53748,1.76974554 12.15223,1.1395815 23.09602,2.7885813 32.28672,4.8262549 9.1907,2.0376736 16.62834,4.4640211 21.76832,7.1582931 5.13993,2.694275 7.98223,5.656477 7.98223,8.765861 z M 149.2911,41.013954 v 6.977066 m 0,-6.977066 v 6.977066 m -26.5324,-11.286146 0.66087,0.774978 m 5.51018,-2.768772 2.1892,3.564928 m 6.96373,-4.909138 1.76441,5.436479 m 9.44401,-5.92938 v 8.139985 m 11.20843,-7.647084 -1.77503,5.46916 m 10.92795,-4.12495 -2.18759,3.562314 m 8.35864,-1.56852 -0.68679,0.805373 m -53.3311,-0.239875 c 0.2769,-0.192695 0.59533,-0.381393 0.95302,-0.56559 1.45712,-0.750396 3.5656,-1.426171 6.17105,-1.993695 2.60546,-0.56752 5.70791,-1.026792 9.15292,-1.344181 3.44502,-0.31739 7.23262,-0.4929 11.20842,-0.4929 3.9758,0 7.76341,0.17551 11.20843,0.4929 3.44501,0.317389 6.54745,0.776661 9.15292,1.344181 2.60544,0.567524 4.71393,1.243299 6.17105,1.993695 0.3548,0.182715 0.67097,0.369855 0.9463,0.560934 m 10.68149,-4.168698 -5.09778,3.292948 m -33.06233,5.070083 v 3.958357 m -38.16039,-12.321388 4.93409,3.187119 m -1.9352,-6.442278 8.6291,6.863015 m -0.45109,-9.521334 6.62214,7.52754 m 5.50751,-9.319822 3.64542,7.975612 m 11.20842,-8.632883 v 8.139982 m 14.85356,-7.482711 -3.64513,7.975612 m 15.77478,-6.18333 -6.62186,7.52754 m 14.80014,-4.869221 -8.62909,6.863015 m -62.82904,-1.019716 c -1.05788,-0.713944 -1.86371,-1.586521 -1.86371,-2.58814 0,-1.154677 1.0678,-2.2547 2.99882,-3.255224 1.93101,-1.000531 4.72524,-1.901563 8.17807,-2.658262 3.45281,-0.756692 7.56423,-1.369054 12.12969,-1.792241 4.56543,-0.423186 9.58486,-0.657202 14.85369,-0.657202 5.26884,0 10.28825,0.234016 14.85369,0.657202 4.56546,0.423187 8.67688,1.035549 12.12969,1.792241 3.45284,0.756699 6.24706,1.657731 8.17806,2.658262 1.93103,1.000524 2.99884,2.100547 2.99884,3.255224 0,0.932676 -0.69667,1.829694 -1.98221,2.667422 m 14.82563,-7.940106 -12.84351,5.272684 m 8.83533,-0.901419 -9.91141,3.481307 m -37.08403,3.377758 v 2.405385 m -46.99568,-9.26445 9.77031,3.431679 m -13.778426,-7.802944 12.843406,5.272684 m -8.83529,-9.643954 11.83418,6.388795 m -0.90363,-9.958418 9.08164,7.300099 m 7.13035,-9.706848 4.9993,7.914566 m 14.85384,-8.797083 v 8.139812 m 19.85285,-7.257295 -4.99929,7.914566 m 21.21157,-5.507817 -9.08192,7.300099 m 20.01223,-3.730476 -11.83395,6.388795 m 15.84213,-2.017525 -12.84351,5.272684 m 12.84352,-5.272627 c 0,1.55057 -1.42719,3.027743 -4.00812,4.371308 -2.58093,1.343566 -6.31559,2.553521 -10.93051,3.569654 -4.61494,1.016136 -10.11014,1.838452 -16.21214,2.40673 -6.10199,0.56828 -12.8108,0.882523 -19.85294,0.882523 -7.04215,0 -13.75095,-0.314243 -19.85294,-0.882523 -6.10199,-0.568278 -11.5972,-1.390594 -16.21214,-2.40673 -4.61491,-1.016133 -8.34959,-2.226088 -10.93051,-3.569654 -2.580923,-1.343565 -4.008118,-2.820738 -4.008118,-4.371308 0,-1.550565 1.427195,-3.027739 4.008118,-4.371305 2.58093,-1.343566 6.3156,-2.553524 10.93051,-3.569657 4.61494,-1.016134 10.11015,-1.838449 16.21214,-2.406728 6.10199,-0.568281 12.81079,-0.882526 19.85294,-0.882526 7.04214,0 13.75095,0.314245 19.85294,0.882526 6.102,0.568279 11.5972,1.390594 16.21214,2.406728 4.61492,1.016133 8.34958,2.226091 10.93051,3.569657 2.58093,1.343566 4.00812,2.82074 4.00812,4.371305 z m 19.26511,-3.838875 -19.26512,3.838818 m 13.74314,2.206509 -17.75132,2.164756 m 2.69211,2.771929 -13.62242,0.797914 m -8.71348,2.530646 -7.4988,-0.123941 m -19.85285,1.34443 v -0.461913 m -27.35194,-0.758576 7.4988,-0.123941 m -29.834518,-3.204619 13.622528,0.797914 m -28.68173,-5.734599 17.75118,2.164756 m -23.27326,-8.210083 19.265144,3.838818 m -13.743064,-9.884341 17.75118,5.513071 m -2.691978,-10.449823 13.622528,6.8802 m 8.71319,-10.2086663 7.4988,7.8019173 M 149.2911,8.4542615 v 8.1399135 m 27.35165,-6.9194003 -7.4988,7.8019173 m 29.8347,-4.473451 -13.62242,6.8802 m 28.68163,-1.943448 -17.75132,5.513071 m 23.2733,0.532452 -19.26512,3.838818 m 19.26512,-3.838818 31.30587,-1.151054 m -36.82785,7.196381 28.84559,1.569456 m -43.9048,3.367229 22.13646,3.791132 m -44.47236,-0.462572 12.18562,5.288943 M 149.2911,39.516577 v 5.838102 m -27.35194,-7.058591 -12.18561,5.288943 M 99.603442,34.967528 77.466836,38.75866 M 84.54424,30.030843 55.698534,31.600299 M 79.02216,23.985516 47.716198,22.834462 M 84.54424,17.939993 55.698534,14.068654 M 99.603442,13.003241 77.466836,6.9103629 M 121.93916,9.6747747 109.75355,2.084104 M 149.2911,8.4542615 V 0.31436867 M 176.64275,9.6747747 188.82837,2.084104 m 10.15028,10.919137 22.13646,-6.0928781 m -7.07725,11.0296301 28.84559,-3.871339 m -23.32361,9.916862 31.30587,-1.151054 m -31.30583,1.150947 c 0,2.144404 -1.96628,4.187306 -5.52208,6.045427 -3.55578,1.85812 -8.7011,3.531463 -15.05918,4.936754 -6.35809,1.405294 -13.92894,2.542536 -22.33579,3.328458 -8.40683,0.785915 -17.64971,1.220514 -27.35181,1.220514 -9.7021,0 -18.94497,-0.434599 -27.35181,-1.220514 C 113.53236,37.510126 105.9615,36.372884 99.603433,34.96759 93.245353,33.562299 88.100032,31.888956 84.544236,30.030836 80.988439,28.172715 79.02216,26.129813 79.02216,23.985409 c 0,-2.144401 1.966279,-4.187302 5.522076,-6.045422 3.555796,-1.85812 8.701117,-3.531463 15.059197,-4.936754 6.358067,-1.405292 13.928927,-2.542535 22.335777,-3.3284529 8.40684,-0.7859196 17.64971,-1.2205133 27.35181,-1.2205133 9.7021,0 18.94498,0.4345937 27.35181,1.2205133 8.40685,0.7859179 15.9777,1.9231609 22.33579,3.3284529 6.35808,1.405291 11.5034,3.078634 15.05918,4.936754 3.55579,1.85812 5.52208,3.901021 5.52208,6.045422 z" />
  </g>
  <g
     id="layer1">
    <g
       id="g1"
       transform="matrix(0.22235246,0,0,0.22235246,132.20251,30.833675)">
      <text
         xml:space="preserve"
         style="font-size:32.6143px;display:none;fill:#4c4c4c;fill-opacity:1;stroke:none;stroke-width:35.9524;stroke-dasharray:none;stroke-opacity:1"
         x="-20.112331"
         y="42.355408"
         id="text952"
         transform="scale(0.96970186,1.0312448)"><tspan
           id="tspan952"
           style="fill:#4c4c4c;fill-opacity:1;stroke-width:35.9526"
           x="0"
           y="0">Gravity Link</tspan></text>
      <g
         id="g952"
         transform="matrix(1.9600394,0,0,1.9600394,-21.76898,-126.32071)"
         style="display:inline">
        <path
           style="fill:none;stroke:#4c4c4c;stroke-width:1;stroke-dasharray:none;stroke-opacity:1"
           d="M 32.469627,44.230655 C 29.941348,60.367779 46.22218,71.111741 76.077296,73.907676"
           id="path6" />
        <path
           style="fill:none;stroke:#4c4c4c;stroke-width:2;stroke-dasharray:none;stroke-opacity:1"
           d="M 50.765372,28.437064 C 39.687153,27.863928 19.728487,29.853017 7.3110543,47.02446"
           id="path4" />
        <path
           style="fill:none;stroke:#4c4c4c;stroke-width:1;stroke-dasharray:none;stroke-opacity:1"
           d="M 39.596895,31.493334 C 20.507911,42.512009 27.039957,67.412694 41.231566,73.777886"
           id="path5" />
        <path
           style="fill:none;stroke:#4c4c4c;stroke-width:2;stroke-dasharray:none;stroke-opacity:1"
           d="M 49.390799,64.211259 C 60.38849,65.662543 79.756951,61.483586 93.499102,45.352733"
           id="path7" />
        <path
           style="fill:none;stroke:#4c4c4c;stroke-width:1;stroke-dasharray:none;stroke-opacity:1"
           d="M 55.443632,64.060304 C 66.336206,61.960949 77.682503,56.506973 83.863066,32.463758"
           id="path8" />
        <path
           style="fill:none;fill-opacity:1;stroke:#4c4c4c;stroke-width:3.5;stroke-dasharray:none;stroke-opacity:1"
           d="M 66.688563,45.714947 51.868883,45.589356"
           id="path15" />
        <path
           style="fill:none;fill-opacity:1;stroke:#4c4c4c;stroke-width:3.5;stroke-dasharray:none;stroke-opacity:1"
           id="path1-6"
           d="M 67.848473,46.491878 A 17.20719,17.20719 0 0 1 50.47752,63.48972 17.20719,17.20719 0 0 1 33.435787,46.161823 17.20719,17.20719 0 0 1 50.720515,29.076308" />
        <circle
           style="fill:#ffffff;fill-opacity:1;stroke:#4c4c4c;stroke-width:1.7;stroke-dasharray:none;stroke-opacity:1"
           id="circle9"
           cx="51.044102"
           cy="45.347359"
           r="3.8305106" />
        <circle
           style="fill:#ffffff;fill-opacity:1;stroke:#4c4c4c;stroke-width:1.7;stroke-dasharray:none;stroke-opacity:1"
           id="path9"
           cx="67.630486"
           cy="46.002117"
           r="3.8305106" />
        <circle
           style="fill:#f4b400;fill-opacity:1;stroke:#000000;stroke-width:0;stroke-dasharray:none;stroke-opacity:1"
           id="circle11"
           cx="7.0874214"
           cy="46.854443"
           r="3.8305106" />
        <circle
           style="fill:#db4437;fill-opacity:1;stroke:#000000;stroke-width:0;stroke-dasharray:none;stroke-opacity:1"
           id="circle12"
           cx="93.242516"
           cy="45.822914"
           r="3.8305106" />
        <circle
           style="fill:#0f9d58;fill-opacity:1;stroke:#0f9d58;stroke-width:0;stroke-dasharray:none;stroke-opacity:1"
           id="circle13"
           cx="76.287796"
           cy="73.829605"
           r="2.197834" />
        <circle
           style="fill:#db37d6;fill-opacity:1;stroke:#000000;stroke-width:0;stroke-dasharray:none;stroke-opacity:1"
           id="circle14"
           cx="83.697639"
           cy="32.285946"
           r="2.197834" />
        <circle
           style="fill:#4285f4;fill-opacity:1;stroke:#000000;stroke-width:0;stroke-dasharray:none;stroke-opacity:1"
           id="circle15"
           cx="41.499226"
           cy="73.730812"
           r="2.197834" />
      </g>
    </g>
  </g>
</svg>
