<?xml version="1.0" encoding="UTF-8" standalone="no"?>
<!-- Created with Inkscape (http://www.inkscape.org/) -->

<svg
   width="694.99194"
   height="360.7804"
   viewBox="0 0 183.88329 95.45648"
   version="1.1"
   id="svg1"
   xmlns="http://www.w3.org/2000/svg"
   xmlns:svg="http://www.w3.org/2000/svg">
  <defs
     id="defs1" />
  <g
     id="layer1"
     style="display:inline"
     transform="translate(-161.35632,-40.278236)">
    <g
       id="g952"
       transform="matrix(1.9600394,0,0,1.9600394,154.97266,-13.28205)"
       style="display:inline">
      <path
         style="fill:none;stroke:#4c4c4c;stroke-width:1;stroke-dasharray:none;stroke-opacity:1"
         d="M 32.469627,44.230655 C 29.941348,60.367779 46.22218,71.111741 76.077296,73.907676"
         id="path6" />
      <path
         style="fill:none;stroke:#4c4c4c;stroke-width:2;stroke-dasharray:none;stroke-opacity:1"
         d="M 50.765372,28.437064 C 39.687153,27.863928 19.728487,29.853017 7.3110543,47.02446"
         id="path4" />
      <path
         style="fill:none;stroke:#4c4c4c;stroke-width:1;stroke-dasharray:none;stroke-opacity:1"
         d="M 39.596895,31.493334 C 20.507911,42.512009 27.039957,67.412694 41.231566,73.777886"
         id="path5" />
      <path
         style="fill:none;stroke:#4c4c4c;stroke-width:2;stroke-dasharray:none;stroke-opacity:1"
         d="M 49.390799,64.211259 C 60.38849,65.662543 79.756951,61.483586 93.499102,45.352733"
         id="path7" />
      <path
         style="fill:none;stroke:#4c4c4c;stroke-width:1;stroke-dasharray:none;stroke-opacity:1"
         d="M 55.443632,64.060304 C 66.336206,61.960949 77.682503,56.506973 83.863066,32.463758"
         id="path8" />
      <path
         style="fill:none;fill-opacity:1;stroke:#4c4c4c;stroke-width:3.5;stroke-dasharray:none;stroke-opacity:1"
         d="M 66.688563,45.714947 51.868883,45.589356"
         id="path15" />
      <path
         style="fill:none;fill-opacity:1;stroke:#4c4c4c;stroke-width:3.5;stroke-dasharray:none;stroke-opacity:1"
         id="path1-6"
         d="M 67.848473,46.491878 A 17.20719,17.20719 0 0 1 50.47752,63.48972 17.20719,17.20719 0 0 1 33.435787,46.161823 17.20719,17.20719 0 0 1 50.720515,29.076308" />
      <circle
         style="fill:#ffffff;fill-opacity:1;stroke:#4c4c4c;stroke-width:1.7;stroke-dasharray:none;stroke-opacity:1"
         id="circle9"
         cx="51.044102"
         cy="45.347359"
         r="3.8305106" />
      <circle
         style="fill:#ffffff;fill-opacity:1;stroke:#4c4c4c;stroke-width:1.7;stroke-dasharray:none;stroke-opacity:1"
         id="path9"
         cx="67.630486"
         cy="46.002117"
         r="3.8305106" />
      <circle
         style="fill:#f4b400;fill-opacity:1;stroke:#000000;stroke-width:0;stroke-dasharray:none;stroke-opacity:1"
         id="circle11"
         cx="7.0874214"
         cy="46.854443"
         r="3.8305106" />
      <circle
         style="fill:#db4437;fill-opacity:1;stroke:#000000;stroke-width:0;stroke-dasharray:none;stroke-opacity:1"
         id="circle12"
         cx="93.242516"
         cy="45.822914"
         r="3.8305106" />
      <circle
         style="fill:#0f9d58;fill-opacity:1;stroke:#0f9d58;stroke-width:0;stroke-dasharray:none;stroke-opacity:1"
         id="circle13"
         cx="76.287796"
         cy="73.829605"
         r="2.197834" />
      <circle
         style="fill:#db37d6;fill-opacity:1;stroke:#000000;stroke-width:0;stroke-dasharray:none;stroke-opacity:1"
         id="circle14"
         cx="83.697639"
         cy="32.285946"
         r="2.197834" />
      <circle
         style="fill:#4285f4;fill-opacity:1;stroke:#000000;stroke-width:0;stroke-dasharray:none;stroke-opacity:1"
         id="circle15"
         cx="41.499226"
         cy="73.730812"
         r="2.197834" />
    </g>
  </g>
</svg>
